<?xml version="1.0" standalone="no"?>
<!DOCTYPE svg PUBLIC "-//W3C//DTD SVG 20010904//EN"
 "http://www.w3.org/TR/2001/REC-SVG-20010904/DTD/svg10.dtd">
<svg version="1.0" xmlns="http://www.w3.org/2000/svg"
 width="4096.000000pt" height="4096.000000pt" viewBox="0 0 4096.000000 4096.000000"
 preserveAspectRatio="xMidYMid meet">
<metadata>
Created by potrace 1.14, written by Peter Selinger 2001-2017
</metadata>
<g transform="translate(0.000000,4096.000000) scale(0.100000,-0.100000)"
fill="#000000" stroke="none">
<path d="M34180 31911 c-60 -16 -331 -108 -390 -133 -14 -5 -56 -20 -95 -33
-38 -13 -128 -44 -200 -70 -71 -26 -155 -55 -185 -65 -63 -21 -221 -76 -330
-115 -122 -43 -664 -233 -820 -287 -80 -27 -161 -56 -180 -63 -30 -12 -91 -33
-270 -95 -19 -6 -98 -34 -175 -61 -77 -28 -196 -70 -265 -94 -300 -104 -546
-191 -690 -242 -85 -30 -173 -60 -195 -68 -22 -7 -125 -43 -230 -80 -104 -37
-246 -86 -315 -110 -69 -24 -177 -63 -240 -85 -63 -23 -119 -42 -125 -43 -5
-2 -37 -12 -70 -24 -74 -27 -231 -82 -1005 -353 -333 -117 -672 -236 -755
-265 -82 -29 -224 -79 -315 -110 -91 -31 -172 -59 -180 -62 -8 -3 -19 -7 -25
-9 -5 -1 -48 -17 -95 -34 -47 -17 -92 -33 -100 -35 -8 -3 -73 -25 -145 -51
-156 -55 -490 -172 -525 -184 -14 -4 -97 -34 -185 -65 -88 -31 -216 -76 -285
-100 -69 -23 -138 -48 -155 -55 -16 -6 -37 -13 -45 -15 -15 -4 -252 -87 -340
-120 -25 -9 -52 -18 -60 -20 -8 -2 -42 -14 -75 -26 -115 -41 -310 -110 -325
-114 -15 -4 -191 -67 -220 -78 -8 -3 -73 -26 -145 -51 -71 -24 -209 -72 -305
-106 -96 -34 -231 -81 -300 -105 -69 -24 -197 -69 -285 -100 -88 -31 -185 -65
-215 -75 -30 -10 -145 -51 -255 -90 -110 -39 -207 -73 -215 -75 -8 -1 -33 -10
-55 -18 -22 -8 -49 -18 -60 -23 -11 -4 -24 -8 -30 -9 -5 -2 -44 -15 -85 -30
-41 -14 -120 -42 -175 -61 -55 -20 -136 -48 -180 -64 -44 -16 -397 -140 -785
-276 -388 -135 -781 -273 -875 -306 -93 -33 -181 -63 -195 -68 -14 -4 -97 -34
-185 -65 -88 -31 -185 -65 -215 -75 -30 -11 -113 -40 -185 -65 -71 -26 -155
-55 -185 -65 -30 -10 -120 -42 -200 -70 -80 -28 -210 -74 -290 -101 -80 -27
-154 -53 -165 -58 -11 -5 -76 -29 -145 -52 -69 -23 -172 -59 -230 -80 -58 -20
-159 -55 -225 -78 -66 -23 -127 -44 -135 -48 -8 -3 -21 -7 -28 -9 -8 -1 -21
-6 -30 -10 -9 -4 -19 -8 -22 -9 -3 -1 -12 -4 -20 -7 -8 -4 -31 -11 -50 -18
-19 -6 -111 -39 -205 -71 -93 -33 -190 -67 -215 -75 -25 -9 -74 -26 -110 -39
-36 -13 -155 -55 -265 -94 -521 -181 -836 -292 -1135 -397 -179 -64 -332 -117
-340 -119 -8 -2 -33 -10 -55 -18 -22 -9 -85 -31 -140 -51 -55 -19 -185 -65
-290 -101 -104 -37 -278 -98 -385 -135 -107 -37 -222 -77 -255 -89 -33 -12
-91 -33 -130 -46 -38 -13 -135 -47 -215 -75 -80 -29 -183 -65 -230 -80 -47
-15 -96 -32 -110 -38 -31 -13 -62 -24 -75 -28 -19 -4 -250 -85 -270 -94 -31
-14 -368 -131 -385 -134 -12 -2 -15 -27 -18 -140 l-3 -137 37 16 c20 8 40 13
44 10 5 -3 10 -1 12 3 1 5 46 23 98 41 52 18 102 35 110 38 8 3 20 7 25 9 6 1
37 12 70 24 214 78 394 138 399 133 3 -4 6 -2 6 4 0 6 17 15 38 21 20 5 102
33 182 62 80 28 163 57 184 65 22 8 43 12 48 9 4 -3 8 -1 8 3 0 5 39 22 88 37
48 16 93 34 100 39 7 5 15 7 19 4 3 -4 11 -3 17 2 6 5 38 18 71 29 33 11 139
48 235 82 96 34 193 68 214 75 22 8 43 12 48 9 4 -3 8 -1 8 4 0 7 25 18 90 37
3 1 12 4 20 8 20 8 193 68 205 71 6 2 17 6 25 9 17 7 99 36 115 41 6 2 19 6
30 10 73 28 96 36 103 37 4 1 12 3 17 5 49 18 312 110 355 125 30 10 85 29
123 43 37 14 67 22 67 19 0 -3 6 -1 13 4 13 11 115 48 132 48 6 0 12 3 15 7 3
4 17 9 30 10 14 2 27 6 30 9 4 5 253 95 285 103 6 2 17 6 25 9 102 38 232 82
245 82 6 0 12 3 15 6 3 3 52 22 110 42 58 20 157 55 220 77 93 34 174 61 220
75 3 1 12 5 20 8 59 26 214 76 221 71 5 -3 9 -1 9 3 0 6 120 53 150 59 3 0 12
4 20 7 66 28 149 54 154 50 3 -4 6 -2 6 4 0 5 6 10 13 10 6 0 89 28 182 61 94
33 197 69 230 81 33 11 92 32 130 46 39 15 71 26 72 26 4 -1 30 9 72 25 18 8
37 11 42 8 5 -3 9 -1 9 4 0 5 10 12 23 15 12 2 94 30 182 61 88 32 210 74 270
96 61 21 123 43 138 49 16 6 32 9 37 6 5 -3 10 -1 12 3 1 5 30 18 63 29 33 12
98 35 144 52 46 16 88 28 92 25 4 -2 10 0 14 6 3 5 27 16 53 24 52 16 251 87
295 105 16 6 33 9 38 5 5 -3 9 0 9 5 0 6 5 11 11 11 9 0 413 139 459 158 8 3
20 6 25 7 6 0 15 4 21 7 21 14 98 37 106 32 4 -3 8 -1 8 3 0 7 89 41 150 58 3
1 12 5 20 8 57 25 245 85 252 81 4 -3 8 -1 8 4 0 9 76 37 98 35 6 0 12 3 12 7
0 4 12 11 28 14 15 4 63 20 107 36 44 16 124 45 179 64 54 20 102 34 106 31 5
-3 10 -1 12 3 2 7 219 88 283 106 6 2 23 8 39 15 16 6 36 13 45 15 9 2 24 6
33 10 9 4 22 9 30 10 7 2 27 8 43 15 32 13 223 81 240 85 6 2 23 8 38 14 16 7
31 12 35 12 4 0 43 14 86 30 43 17 82 28 87 24 5 -3 9 -1 9 5 0 5 15 13 33 16
17 4 37 11 42 15 6 4 24 11 40 15 36 10 36 10 55 18 20 9 331 117 350 122 8 2
45 16 83 29 37 14 67 23 67 20 0 -4 6 -2 13 4 7 6 71 31 142 56 190 65 225 77
281 98 29 11 58 21 65 22 8 2 28 9 44 15 17 7 37 14 45 16 20 4 160 54 185 67
12 5 27 10 35 12 8 2 22 6 30 9 67 27 190 65 190 59 0 -4 4 -2 8 4 8 12 199
80 220 78 6 -1 12 2 12 7 0 5 3 8 8 7 4 0 14 2 22 5 65 27 125 45 132 41 4 -3
8 -1 8 4 0 5 17 14 38 20 29 8 216 73 302 105 8 3 44 15 80 28 36 12 94 32
129 45 35 14 66 22 69 19 3 -3 11 0 17 5 11 9 111 45 415 151 47 16 92 32 100
36 8 3 20 7 26 8 6 2 62 21 124 44 62 22 117 38 121 35 5 -3 9 -1 9 4 0 5 19
14 43 21 23 7 57 19 75 27 18 8 36 13 41 9 5 -3 11 -1 13 3 1 5 50 25 108 45
58 19 142 49 188 66 45 17 86 31 90 32 9 2 7 1 126 43 54 20 102 33 107 31 4
-3 9 -1 11 3 2 7 174 72 228 87 8 2 74 25 145 51 72 25 135 47 140 48 6 2 17
6 25 9 25 11 244 88 260 92 8 2 59 20 113 39 53 19 98 35 100 34 1 0 18 6 37
14 19 8 60 23 90 32 30 10 62 20 70 23 8 3 20 7 25 9 6 2 55 19 110 40 55 20
107 37 115 38 8 0 17 4 20 8 3 4 15 9 25 11 11 2 31 8 45 14 14 5 68 25 120
43 52 18 151 53 220 78 69 24 130 45 135 46 6 1 15 4 20 7 9 6 83 32 95 34 3
0 30 10 60 20 30 11 60 20 65 21 6 1 27 8 47 18 21 9 42 16 48 16 6 0 18 5 28
10 14 8 196 73 237 84 6 2 17 6 25 9 99 38 185 65 192 61 4 -3 8 0 8 5 0 6 8
11 18 11 10 0 23 5 30 12 7 7 12 9 12 6 0 -3 34 7 77 23 42 15 80 26 85 23 4
-3 8 0 8 7 0 7 3 9 7 6 3 -4 11 -3 17 2 6 4 54 23 106 41 52 18 124 43 159 56
34 13 67 21 72 18 5 -3 9 0 9 5 0 6 5 11 11 11 5 0 87 28 182 61 95 34 179 62
187 63 8 0 17 4 20 7 3 3 75 29 160 58 85 29 169 59 185 66 17 7 50 19 75 26
25 7 49 16 54 21 6 4 18 8 28 8 10 0 26 5 36 10 14 8 306 112 337 120 6 1 21
7 35 12 92 36 185 66 192 62 4 -3 8 0 8 5 0 6 5 11 11 11 6 0 86 27 179 59 92
33 176 61 186 63 11 2 21 5 24 8 6 6 131 50 151 54 8 1 24 8 37 14 12 7 27 10
32 7 6 -3 10 -2 10 4 0 5 15 13 33 16 17 4 37 10 42 13 10 6 220 81 240 86 6
1 33 10 60 20 28 10 57 21 65 23 8 3 65 23 125 44 61 22 157 56 215 75 58 20
112 38 120 42 8 3 17 6 20 7 3 1 13 5 23 8 43 17 53 20 67 23 8 2 23 7 35 13
11 5 57 22 103 37 l82 29 0 127 c0 71 -1 128 -2 127 -2 0 -32 -8 -68 -18z"/>
<path d="M33525 30935 c-27 -7 -75 -23 -105 -35 -30 -12 -66 -25 -80 -30 -14
-5 -50 -18 -80 -30 -30 -12 -66 -25 -80 -30 -14 -5 -50 -18 -80 -30 -30 -12
-66 -25 -80 -30 -14 -5 -50 -18 -80 -30 -30 -12 -66 -25 -80 -30 -14 -5 -50
-18 -80 -30 -30 -12 -66 -25 -80 -30 -14 -5 -50 -18 -80 -30 -30 -12 -66 -25
-80 -30 -14 -5 -50 -18 -80 -30 -30 -12 -66 -25 -80 -30 -14 -5 -50 -18 -80
-30 -30 -12 -66 -25 -80 -30 -14 -5 -50 -18 -80 -30 -30 -12 -66 -25 -80 -30
-14 -5 -50 -18 -80 -30 -30 -12 -66 -25 -80 -30 -14 -5 -50 -18 -80 -30 -30
-12 -66 -25 -80 -29 -14 -5 -45 -18 -70 -29 -42 -19 -84 -35 -172 -68 -48 -18
-106 -40 -160 -60 -24 -9 -60 -22 -80 -30 -21 -8 -57 -21 -80 -30 -55 -21
-113 -42 -160 -60 -21 -8 -55 -20 -75 -28 -21 -8 -56 -20 -78 -29 -22 -8 -58
-21 -80 -30 -22 -8 -60 -23 -85 -32 -25 -9 -61 -23 -80 -30 -45 -16 -103 -38
-160 -60 -49 -19 -105 -40 -162 -61 -21 -8 -57 -21 -80 -30 -24 -9 -60 -22
-80 -30 -41 -15 -92 -34 -160 -60 -24 -9 -68 -26 -98 -39 -51 -21 -74 -30
-180 -70 -22 -8 -59 -22 -82 -31 -24 -9 -60 -22 -80 -30 -21 -8 -55 -20 -75
-28 -21 -8 -57 -21 -80 -30 -24 -9 -60 -22 -80 -30 -21 -8 -56 -20 -78 -29
-22 -8 -58 -21 -80 -30 -22 -8 -58 -21 -80 -30 -22 -8 -60 -23 -85 -32 -25 -9
-61 -23 -80 -30 -19 -7 -54 -20 -77 -29 -24 -9 -62 -23 -85 -32 -24 -9 -60
-22 -80 -30 -21 -8 -56 -21 -78 -29 -22 -8 -57 -21 -77 -29 -21 -8 -58 -22
-83 -31 -25 -9 -61 -23 -80 -30 -19 -7 -55 -21 -80 -30 -25 -9 -63 -24 -85
-32 -22 -8 -65 -25 -95 -38 -54 -22 -107 -43 -182 -71 -152 -56 -199 -75 -273
-107 -95 -41 -162 -85 -210 -138 -75 -82 -135 -208 -150 -316 -3 -27 -2 -329
4 -669 6 -340 15 -902 21 -1249 6 -346 17 -1044 25 -1550 8 -506 22 -1338 30
-1850 8 -511 19 -1211 25 -1555 6 -344 17 -1043 25 -1555 37 -2283 45 -2808
55 -3395 6 -344 17 -1043 25 -1555 36 -2250 33 -2162 71 -2280 35 -106 116
-210 211 -269 44 -27 201 -92 288 -119 28 -9 109 -37 180 -62 72 -26 173 -62
225 -80 52 -18 140 -49 195 -68 55 -19 147 -51 205 -72 244 -85 303 -105 455
-159 88 -31 185 -66 215 -76 30 -10 93 -33 140 -50 47 -17 123 -44 170 -60 47
-16 110 -38 140 -50 30 -12 75 -28 100 -35 25 -7 70 -23 100 -35 107 -41 136
-51 180 -65 25 -7 70 -23 100 -35 107 -41 136 -51 180 -65 25 -7 70 -23 100
-35 30 -12 75 -28 100 -35 44 -14 73 -24 180 -65 30 -12 75 -28 100 -35 25 -7
70 -23 100 -35 107 -41 136 -51 180 -65 25 -7 70 -23 100 -35 107 -41 136 -51
180 -65 25 -7 70 -23 100 -35 30 -12 75 -28 100 -35 25 -7 70 -23 100 -35 107
-41 135 -51 180 -65 45 -14 73 -24 180 -65 30 -12 75 -28 100 -35 25 -7 70
-23 100 -35 107 -41 136 -51 180 -65 25 -7 70 -23 100 -35 30 -12 93 -34 140
-50 47 -16 110 -38 140 -50 30 -12 93 -34 140 -50 47 -16 110 -39 140 -50 78
-31 197 -60 247 -60 162 0 322 96 396 238 57 109 61 148 48 514 -6 178 -18
523 -26 768 -28 825 -35 979 -46 1032 -16 77 -74 180 -129 232 -67 62 -152
101 -340 156 -36 10 -85 26 -110 34 -25 8 -67 22 -95 31 -27 9 -79 25 -115 35
-36 10 -86 26 -112 34 -27 9 -69 23 -95 32 -27 8 -77 24 -113 34 -36 10 -86
26 -112 34 -27 9 -69 23 -95 32 -27 8 -77 23 -113 33 -36 10 -74 22 -85 28
-11 6 -54 18 -95 28 -41 10 -84 22 -95 28 -11 6 -49 18 -85 28 -36 10 -86 25
-112 33 -27 9 -69 23 -95 32 -27 8 -77 24 -113 34 -36 10 -86 26 -112 34 -27
9 -69 23 -95 32 -27 8 -77 24 -113 34 -36 10 -86 26 -112 34 -27 9 -69 23 -95
32 -27 8 -86 26 -133 39 -47 13 -105 30 -130 39 -25 8 -67 22 -95 31 -27 9
-79 25 -115 35 -36 10 -85 26 -110 34 -122 40 -150 48 -217 68 -70 20 -73 21
-74 52 0 17 -2 69 -4 116 -4 100 -30 1001 -45 1545 -6 209 -17 625 -25 925 -8
300 -19 716 -25 925 -6 209 -17 625 -25 925 -23 862 -44 1624 -55 2025 -11
401 -32 1163 -55 2025 -8 300 -19 716 -25 925 -6 209 -17 621 -25 915 -8 294
-19 720 -25 945 -6 226 -17 626 -25 890 -8 264 -11 483 -7 487 6 6 652 266
752 303 19 7 71 27 115 44 106 43 149 59 280 108 22 8 65 25 95 38 30 13 73
30 95 38 22 8 59 22 83 31 23 9 60 23 82 31 106 40 129 49 180 70 51 21 74 30
180 70 106 40 129 49 180 70 30 13 73 30 95 38 22 8 60 23 85 32 46 18 94 36
165 62 22 8 65 25 95 38 30 13 73 30 95 38 151 56 203 76 265 102 56 23 116
47 180 70 19 7 54 20 78 29 23 9 61 23 85 32 23 9 67 26 97 39 53 22 94 38
183 71 100 37 231 109 281 155 62 56 119 157 135 239 6 30 17 296 26 590 8
294 20 722 26 950 13 466 11 489 -48 602 -93 178 -306 273 -498 223z"/>
<path d="M26005 28239 c-40 -9 -67 -19 -177 -65 -32 -13 -84 -35 -115 -48 -32
-13 -78 -32 -103 -41 -25 -9 -70 -27 -100 -40 -30 -13 -75 -31 -100 -40 -25
-9 -70 -27 -100 -40 -30 -13 -73 -30 -95 -38 -83 -31 -132 -50 -185 -72 -53
-22 -102 -41 -185 -72 -22 -8 -65 -25 -95 -38 -30 -13 -73 -30 -95 -38 -151
-56 -203 -76 -265 -102 -30 -13 -73 -30 -95 -38 -83 -31 -132 -50 -185 -72
-30 -13 -73 -30 -95 -38 -83 -31 -132 -50 -185 -72 -30 -13 -74 -30 -97 -39
-24 -9 -62 -23 -85 -32 -24 -9 -61 -23 -83 -31 -22 -8 -65 -25 -95 -38 -30
-13 -74 -30 -97 -39 -24 -9 -62 -23 -85 -32 -24 -9 -68 -26 -98 -39 -30 -13
-73 -30 -95 -38 -151 -56 -203 -76 -265 -102 -30 -13 -73 -30 -95 -38 -83 -31
-132 -50 -185 -72 -30 -13 -74 -30 -97 -39 -24 -9 -62 -23 -85 -32 -24 -9 -68
-26 -98 -39 -56 -23 -116 -47 -180 -70 -64 -23 -124 -47 -180 -70 -53 -22
-102 -41 -185 -72 -22 -8 -65 -25 -95 -38 -53 -22 -102 -41 -185 -72 -22 -8
-65 -25 -95 -38 -30 -13 -73 -30 -95 -38 -22 -8 -59 -22 -82 -31 -24 -9 -62
-23 -85 -32 -24 -9 -68 -26 -98 -39 -30 -13 -74 -30 -97 -39 -24 -9 -62 -23
-85 -32 -24 -9 -68 -26 -98 -39 -30 -13 -73 -30 -95 -38 -83 -31 -132 -50
-185 -72 -30 -13 -74 -30 -97 -39 -57 -21 -114 -43 -165 -62 -109 -40 -253
-118 -298 -160 -26 -25 -64 -76 -84 -113 -72 -138 -66 357 -64 -5308 l3 -5108
22 -57 c49 -128 139 -229 255 -285 34 -18 403 -134 818 -259 752 -227 755
-228 850 -228 229 -1 405 130 481 359 l24 70 3 2418 c1 1329 3 2417 5 2417 1
0 47 16 102 35 55 18 181 62 280 96 99 33 223 76 275 95 52 18 176 61 275 95
99 33 223 76 275 95 52 18 176 61 275 95 99 33 223 76 275 94 245 87 307 108
475 166 99 33 223 76 275 95 52 18 176 61 275 95 172 58 261 89 475 164 52 19
174 61 270 94 96 32 234 80 305 106 72 25 164 55 205 66 189 49 317 165 376
339 18 52 19 100 19 885 0 785 -1 833 -19 885 -53 156 -171 274 -326 326 -40
14 -81 18 -155 18 -106 -2 -120 -5 -410 -108 -55 -19 -181 -63 -280 -97 -99
-33 -223 -76 -275 -95 -52 -18 -176 -61 -275 -95 -99 -33 -223 -76 -275 -95
-52 -18 -176 -61 -275 -95 -99 -33 -259 -88 -355 -121 -96 -33 -218 -75 -270
-94 -52 -18 -176 -61 -275 -95 -99 -33 -223 -76 -275 -95 -52 -18 -176 -61
-275 -95 -99 -33 -223 -76 -275 -95 -52 -18 -167 -57 -255 -87 l-160 -54 -3
1070 c-1 589 1 1074 5 1078 5 4 231 96 503 204 483 192 530 210 608 239 20 8
57 22 82 31 49 19 105 40 163 61 85 32 125 47 177 69 56 23 116 47 180 70 38
14 92 34 158 59 54 20 112 42 160 60 20 8 56 21 80 30 23 9 59 22 80 30 75 28
128 49 182 71 30 13 73 30 95 38 22 8 59 22 83 31 23 9 61 23 85 32 54 21 112
42 160 60 20 8 54 20 75 28 20 8 56 21 80 30 23 9 61 23 85 32 23 9 60 23 82
31 22 8 65 25 95 38 62 26 132 53 263 101 20 8 54 20 75 28 20 8 56 21 80 30
23 9 61 23 85 32 23 9 58 22 77 29 19 7 54 20 78 29 23 9 61 23 85 32 102 38
212 98 257 140 57 53 114 157 128 234 17 87 27 1541 12 1615 -17 83 -73 185
-130 239 -108 101 -267 146 -405 115z"/>
<path d="M18395 25480 c-38 -10 -88 -25 -110 -34 -22 -8 -65 -25 -95 -36 -30
-12 -75 -28 -100 -35 -25 -7 -70 -23 -100 -35 -30 -12 -75 -28 -100 -35 -25
-7 -70 -23 -100 -35 -30 -12 -75 -28 -100 -35 -44 -14 -73 -24 -180 -65 -30
-12 -75 -28 -100 -35 -25 -7 -70 -23 -100 -35 -30 -12 -75 -28 -100 -35 -25
-7 -70 -23 -100 -35 -30 -12 -75 -28 -100 -35 -25 -7 -70 -23 -100 -35 -30
-12 -75 -28 -100 -35 -44 -14 -73 -24 -180 -65 -30 -12 -75 -28 -100 -35 -25
-7 -70 -23 -100 -35 -30 -12 -75 -28 -100 -35 -25 -7 -70 -23 -100 -35 -30
-12 -75 -28 -100 -35 -25 -7 -70 -23 -100 -35 -107 -41 -136 -51 -180 -65 -25
-7 -70 -23 -100 -35 -30 -12 -75 -28 -100 -35 -223 -67 -343 -151 -419 -295
-31 -57 -121 -379 -177 -630 -8 -36 -21 -87 -29 -115 -15 -52 -44 -166 -74
-295 -10 -41 -31 -120 -46 -175 -15 -55 -35 -134 -45 -175 -28 -118 -62 -255
-111 -435 -22 -83 -54 -211 -78 -315 -10 -41 -31 -120 -46 -175 -15 -55 -35
-134 -45 -175 -28 -118 -62 -255 -111 -435 -22 -83 -54 -211 -78 -315 -10 -41
-31 -120 -46 -175 -15 -55 -35 -134 -45 -175 -28 -118 -62 -255 -111 -435 -22
-83 -54 -211 -78 -315 -10 -41 -31 -120 -46 -175 -15 -55 -35 -134 -45 -175
-28 -118 -62 -255 -111 -435 -22 -83 -54 -211 -78 -315 -10 -41 -31 -120 -46
-175 -15 -55 -35 -134 -45 -175 -28 -118 -62 -255 -111 -435 -21 -81 -53 -208
-79 -315 -9 -41 -26 -104 -36 -140 -25 -89 -25 -236 0 -310 59 -174 187 -290
376 -339 204 -54 257 -68 275 -78 11 -6 54 -18 95 -28 41 -10 86 -23 100 -30
14 -7 59 -20 100 -30 41 -10 86 -23 100 -30 14 -7 59 -20 100 -30 41 -10 84
-22 95 -28 11 -6 58 -21 105 -33 47 -12 105 -30 129 -39 61 -22 186 -29 257
-15 33 7 85 26 118 42 133 67 203 169 266 388 10 36 26 86 34 113 39 117 48
145 61 187 13 42 22 70 61 188 8 26 24 76 34 112 24 81 48 155 66 200 7 19 20
60 28 90 8 30 22 76 30 103 9 26 23 68 32 95 8 26 24 76 34 112 24 81 48 155
66 200 7 19 20 60 28 90 8 30 22 78 31 105 40 120 47 142 60 185 13 43 20 65
60 185 9 28 23 75 31 105 8 30 21 71 28 90 18 45 42 119 66 200 10 36 26 88
35 115 38 115 47 142 60 185 13 43 22 70 60 185 9 28 25 79 35 115 36 124 44
140 65 140 11 0 67 -7 125 -15 58 -8 126 -15 153 -15 45 0 47 -1 47 -27 0 -29
-23 -781 -40 -1340 -5 -178 -15 -470 -20 -650 -15 -482 -28 -912 -41 -1311 -9
-316 -9 -362 6 -434 21 -102 63 -186 128 -256 70 -74 141 -118 256 -157 53
-18 155 -54 226 -80 72 -26 173 -62 225 -80 100 -35 301 -107 360 -129 19 -8
53 -20 75 -29 22 -8 60 -23 85 -32 25 -9 63 -24 85 -32 22 -8 55 -21 73 -29
18 -8 64 -20 103 -26 187 -32 381 68 468 241 67 131 62 -277 58 4803 -2 4111
-4 4619 -18 4668 -74 264 -321 402 -594 330z m-988 -3282 l1 -804 -81 -22
c-45 -12 -179 -49 -297 -83 -118 -33 -318 -89 -445 -124 -126 -35 -286 -79
-354 -99 -69 -20 -126 -34 -128 -32 -3 3 65 183 107 281 34 82 88 215 204 505
162 406 352 874 372 916 15 30 58 55 172 98 23 9 61 23 85 32 23 9 67 26 97
39 30 13 75 31 100 40 25 9 68 27 95 40 28 13 55 23 60 21 7 -2 11 -281 12
-808z"/>
<path d="M10360 24617 c-73 -43 -526 -303 -585 -337 -16 -10 -53 -31 -81 -47
-27 -17 -70 -42 -95 -55 -85 -49 -235 -135 -334 -193 -55 -32 -215 -125 -355
-205 -140 -81 -311 -180 -380 -220 -69 -40 -143 -82 -165 -95 -22 -12 -56 -31
-75 -42 -70 -41 -616 -356 -647 -374 -50 -29 -402 -232 -457 -265 -70 -41 -91
-74 -91 -138 0 -41 7 -63 30 -101 43 -69 75 -90 138 -90 49 0 69 10 326 159
151 87 288 166 305 176 17 10 47 27 66 38 19 11 134 77 255 147 121 70 234
135 250 145 190 109 372 214 380 220 6 4 35 21 65 38 30 16 123 69 205 117
205 120 225 131 265 153 19 10 118 68 220 127 102 59 206 119 232 134 25 14
73 41 105 60 32 19 74 43 93 54 19 10 103 58 185 106 83 48 203 118 268 155
133 77 161 107 163 178 2 37 -4 58 -29 99 -41 67 -74 91 -134 96 -42 4 -57 -1
-123 -40z"/>
<path d="M12209 24419 c-36 -13 -1441 -719 -1456 -731 -7 -6 -13 -8 -13 -6 0
3 -100 -46 -222 -107 -123 -62 -414 -208 -648 -324 -234 -116 -432 -215 -440
-220 -46 -27 -861 -431 -866 -430 -4 0 -10 -3 -13 -8 -3 -4 -301 -156 -662
-336 -361 -180 -667 -339 -680 -353 l-24 -26 -3 -1438 -2 -1438 25 -31 c18
-20 97 -66 243 -138 119 -59 219 -111 220 -115 2 -5 8 -8 14 -8 10 0 46 -18
928 -461 278 -139 507 -253 510 -254 3 0 12 -5 20 -10 18 -12 253 -129 260
-130 3 0 10 -3 15 -7 16 -10 400 -203 405 -203 3 0 16 -7 30 -15 25 -14 1166
-588 1315 -661 44 -22 295 -148 558 -280 263 -131 495 -242 516 -245 40 -6
121 11 121 26 0 6 7 10 15 10 8 0 26 17 40 37 l25 38 0 3880 c0 3644 -1 3882
-17 3905 -51 74 -139 106 -214 79z"/>
<path d="M3877 23203 c-2 -2 -13 -5 -25 -8 -73 -14 -440 -118 -462 -132 -32
-19 -63 -67 -68 -105 -1 -14 4 -55 14 -90 9 -35 17 -70 19 -78 2 -8 13 -51 25
-95 12 -44 35 -127 50 -185 24 -91 239 -895 289 -1080 10 -36 37 -137 61 -225
23 -88 62 -234 87 -325 24 -91 58 -217 74 -280 40 -151 67 -206 127 -261 75
-66 76 -67 139 -88 77 -26 185 -22 267 10 104 40 202 157 221 262 15 81 11
127 -24 257 -28 106 -56 207 -83 305 -16 61 -41 151 -53 200 -13 50 -40 149
-59 220 -34 124 -73 271 -150 560 -19 72 -67 249 -106 395 -96 358 -104 387
-140 525 -47 178 -70 207 -172 219 -15 2 -29 2 -31 -1z"/>
<path d="M6510 22365 c-182 -30 -237 -60 -297 -163 l-28 -47 0 -1725 0 -1725
25 -48 c28 -56 86 -112 137 -133 35 -15 96 -28 180 -40 26 -3 57 -8 68 -10
162 -31 262 4 314 108 l21 43 0 1797 0 1798 -21 45 c-22 47 -65 90 -108 107
-45 19 -152 16 -291 -7z"/>
<path d="M5548 21665 c-2 -2 -37 -7 -78 -10 -41 -3 -93 -8 -115 -11 -60 -7
-123 -14 -189 -19 -33 -3 -71 -7 -85 -9 -23 -4 -54 -7 -201 -21 -121 -12 -214
-22 -216 -24 -1 0 7 -34 18 -73 10 -40 30 -113 43 -163 13 -49 35 -130 48
-180 54 -201 87 -323 102 -380 9 -33 22 -80 28 -105 29 -107 -2 -258 -77 -384
-40 -66 -174 -196 -202 -196 -4 0 -15 -6 -23 -13 -29 -25 -221 -70 -286 -68
-88 3 -95 4 -95 14 0 4 -4 6 -9 2 -6 -3 -33 4 -62 14 -29 11 -56 18 -61 15 -4
-3 -8 -1 -8 4 0 5 -21 20 -47 35 -27 14 -58 35 -69 46 -12 11 -25 17 -28 14
-3 -4 -6 -1 -6 6 0 6 -15 27 -33 45 -19 19 -37 40 -41 47 -3 8 -16 30 -27 49
-22 36 -45 109 -114 370 -13 52 -40 151 -59 220 -18 69 -46 172 -61 230 -15
58 -31 116 -35 130 -5 14 -19 65 -31 113 l-23 89 -75 -6 c-42 -4 -92 -8 -111
-11 -36 -4 -89 -9 -215 -21 -84 -8 -83 -8 -118 -22 -16 -7 -34 -12 -40 -12 -7
0 -27 -9 -45 -20 -18 -11 -39 -20 -47 -20 -8 0 -15 -4 -15 -8 0 -5 -12 -15
-27 -23 -42 -21 -154 -136 -202 -207 -72 -107 -127 -244 -162 -407 -18 -82
-18 -372 1 -450 7 -33 14 -64 16 -70 6 -31 26 -103 33 -120 26 -65 88 -188
119 -235 43 -65 186 -210 207 -210 8 0 15 -3 15 -8 0 -10 74 -47 135 -67 54
-18 64 -20 140 -30 28 -3 82 -10 120 -16 118 -16 138 -18 185 -24 65 -8 159
-20 229 -29 20 -3 73 -10 118 -16 46 -6 97 -13 115 -15 18 -3 58 -7 88 -11 30
-3 66 -7 80 -9 50 -8 98 -15 220 -30 153 -20 186 -24 225 -30 17 -3 55 -7 85
-10 30 -3 64 -7 75 -9 11 -2 45 -7 75 -11 30 -4 63 -9 72 -10 9 -2 41 -6 70
-9 29 -4 62 -8 73 -10 11 -2 52 -7 90 -11 80 -8 85 -9 140 -18 38 -7 72 -11
175 -23 65 -7 112 -14 140 -20 45 -9 210 -11 210 -2 0 5 4 7 9 3 5 -3 12 -1
16 5 4 6 11 8 16 5 5 -4 9 -1 9 5 0 6 5 8 10 5 6 -3 13 1 16 9 3 9 10 13 15
10 5 -3 9 -1 9 5 0 5 9 13 20 16 11 4 18 10 15 15 -3 5 3 13 12 19 22 11 65
85 56 95 -3 3 -2 6 4 6 5 0 11 6 13 13 8 32 9 2017 1 2017 -6 0 -8 9 -6 20 2
11 0 20 -4 20 -5 0 -12 12 -16 27 -3 15 -13 35 -21 43 -8 8 -27 29 -43 47 -15
18 -31 29 -35 26 -3 -3 -6 -2 -6 4 0 20 -104 56 -171 59 -37 2 -69 1 -71 -1z"/>
<path d="M7183 18389 c-24 -11 -43 -24 -43 -29 0 -4 -11 -23 -24 -43 -14 -20
-28 -52 -31 -70 -9 -45 9 -108 37 -134 13 -12 173 -107 355 -212 183 -105 347
-200 365 -210 18 -10 116 -67 218 -126 162 -94 548 -317 710 -410 30 -17 262
-151 515 -297 253 -146 476 -274 495 -285 19 -11 101 -59 182 -107 81 -47 150
-86 153 -86 2 0 28 -15 57 -33 55 -35 140 -83 217 -124 77 -40 149 -24 199 46
44 61 55 95 47 146 -7 49 -46 97 -101 125 -16 8 -51 29 -79 46 -27 17 -70 42
-95 55 -25 14 -56 32 -70 40 -26 17 -457 265 -570 329 -36 20 -162 93 -280
162 -118 68 -370 214 -560 323 -190 108 -356 205 -370 214 -14 8 -39 23 -56
33 -17 9 -175 100 -350 201 -176 102 -335 194 -354 205 -19 11 -64 36 -100 57
-36 21 -85 49 -109 63 -25 14 -68 38 -95 55 -156 92 -193 102 -263 66z"/>
<path d="M13270 16505 l0 -133 73 -25 c39 -14 151 -53 247 -87 96 -34 200 -70
230 -80 51 -17 222 -77 430 -152 47 -16 103 -36 125 -43 22 -7 112 -39 200
-70 88 -31 185 -65 215 -75 30 -10 107 -37 170 -60 63 -23 122 -43 130 -45 8
-2 98 -34 200 -70 102 -36 248 -88 325 -114 77 -27 219 -77 315 -111 96 -34
231 -81 300 -105 69 -24 197 -69 285 -100 88 -31 171 -60 185 -65 14 -4 104
-36 200 -70 96 -34 198 -68 225 -77 28 -8 54 -18 59 -21 5 -3 71 -26 145 -52
358 -124 868 -302 886 -310 20 -8 140 -50 370 -130 66 -22 134 -46 150 -53 17
-6 32 -12 35 -13 3 0 12 -3 20 -7 8 -3 35 -13 60 -21 25 -8 124 -43 220 -77
96 -33 193 -67 215 -74 22 -8 74 -26 115 -40 41 -15 125 -45 185 -66 61 -21
175 -61 255 -89 80 -28 177 -62 215 -75 39 -13 129 -45 200 -70 72 -26 180
-64 240 -85 61 -21 202 -70 315 -110 113 -40 216 -76 230 -80 14 -5 104 -36
200 -70 96 -34 225 -79 285 -100 61 -21 189 -66 285 -100 96 -34 243 -86 325
-115 83 -29 157 -55 165 -58 8 -3 76 -26 150 -52 74 -26 212 -74 305 -107 94
-33 188 -66 210 -73 22 -7 105 -36 185 -65 80 -28 170 -60 200 -70 30 -10 141
-49 245 -85 105 -37 249 -88 320 -113 183 -64 212 -74 375 -132 80 -28 152
-53 160 -55 8 -2 47 -15 85 -30 39 -15 108 -39 155 -55 47 -16 150 -52 230
-80 80 -29 156 -55 170 -60 14 -4 104 -36 200 -70 197 -69 381 -134 515 -180
50 -17 126 -44 170 -60 44 -16 134 -47 200 -70 66 -23 156 -54 200 -70 44 -16
148 -52 230 -80 83 -29 159 -55 170 -60 11 -5 74 -27 140 -50 66 -23 131 -45
145 -50 14 -5 149 -52 300 -105 151 -53 319 -112 373 -131 53 -19 142 -50 197
-69 55 -19 144 -50 198 -69 109 -39 406 -143 707 -248 262 -91 353 -123 450
-158 44 -16 172 -61 285 -100 113 -39 248 -87 301 -106 53 -19 99 -34 102 -34
3 0 18 -5 34 -12 15 -6 33 -12 38 -14 6 -1 53 -18 105 -37 52 -19 142 -51 200
-70 58 -20 164 -57 235 -82 72 -26 150 -53 175 -61 25 -8 54 -19 65 -24 11 -5
67 -25 125 -44 58 -20 188 -65 290 -101 102 -37 192 -68 200 -70 8 -2 157 -54
330 -115 173 -62 326 -116 340 -120 14 -5 104 -36 200 -70 96 -34 231 -81 300
-105 276 -96 532 -186 655 -230 72 -26 139 -49 150 -52 11 -2 29 -9 40 -13 11
-5 49 -19 85 -30 36 -12 74 -26 85 -31 11 -5 34 -13 50 -18 17 -5 116 -39 220
-76 223 -78 261 -91 297 -99 14 -3 33 -9 42 -12 14 -5 16 9 16 123 l0 130 -32
10 c-18 6 -116 40 -218 76 -102 36 -259 91 -350 123 -91 31 -167 61 -168 66
-2 4 -7 6 -11 3 -5 -2 -59 14 -122 36 -63 22 -148 52 -189 66 -41 14 -81 30
-87 36 -7 5 -13 7 -13 3 0 -3 -12 -1 -27 5 -42 17 -307 110 -318 112 -5 2 -23
8 -40 14 -16 7 -84 30 -150 53 -66 22 -128 45 -137 50 -10 6 -27 10 -37 10
-11 0 -23 5 -26 10 -3 6 -14 10 -24 10 -10 0 -33 8 -52 17 -19 10 -38 18 -44
18 -29 2 -95 27 -95 36 0 6 -4 8 -9 4 -9 -5 -50 8 -116 35 -11 5 -40 15 -65
23 -25 8 -124 43 -220 77 -96 34 -206 72 -245 85 -83 28 -294 103 -315 112 -8
3 -24 8 -35 10 -10 2 -22 7 -25 11 -3 4 -12 8 -20 9 -26 2 -405 137 -408 144
-2 4 -10 5 -18 2 -8 -3 -14 1 -14 8 0 7 -3 10 -6 6 -5 -5 -58 10 -104 30 -8 3
-19 7 -25 9 -38 10 -253 86 -267 94 -10 6 -25 10 -33 10 -8 0 -15 5 -15 11 0
5 -4 8 -8 5 -5 -3 -67 15 -138 41 -71 25 -139 48 -151 50 -13 3 -23 10 -23 16
0 6 -3 8 -6 4 -3 -3 -63 14 -133 39 -69 25 -173 61 -231 81 -58 20 -107 40
-108 45 -2 4 -8 6 -12 3 -5 -3 -26 2 -47 11 -21 9 -42 18 -48 18 -29 4 -125
41 -125 48 0 5 -4 7 -8 4 -4 -3 -39 6 -78 20 -38 14 -109 39 -159 56 -49 17
-92 34 -95 37 -3 3 -16 7 -30 9 -14 1 -26 7 -28 12 -2 5 -10 6 -18 3 -8 -3
-14 -1 -14 4 0 5 -8 9 -17 10 -10 0 -83 24 -163 52 -80 29 -170 61 -200 71
-60 20 -312 109 -400 141 -30 11 -65 23 -77 26 -13 3 -23 10 -23 15 0 5 -4 7
-9 4 -8 -6 -106 25 -118 37 -3 4 -17 7 -29 7 -12 0 -29 6 -36 13 -7 6 -17 12
-23 12 -24 1 -75 17 -75 24 0 4 -7 8 -15 8 -25 0 -95 26 -95 35 0 5 -4 7 -8 4
-8 -5 -76 15 -117 34 -19 8 -203 72 -364 126 -41 14 -79 28 -85 32 -6 3 -18 7
-26 9 -9 1 -34 10 -55 19 -22 10 -47 18 -55 19 -12 2 -98 32 -258 90 -7 2 -14
5 -17 5 -4 0 -43 14 -100 36 -11 4 -22 8 -25 9 -45 11 -147 51 -152 59 -4 6
-8 8 -8 4 0 -4 -78 20 -172 53 -95 34 -258 90 -363 127 -104 36 -192 68 -195
71 -3 3 -9 6 -15 6 -23 1 -125 39 -125 47 0 5 -4 7 -8 4 -5 -3 -40 6 -78 20
-38 14 -76 27 -84 29 -39 9 -146 51 -152 60 -4 5 -8 7 -8 3 0 -4 -64 16 -142
43 -79 28 -177 62 -218 76 -41 15 -77 30 -78 35 -2 4 -7 6 -12 3 -5 -3 -21 0
-37 6 -34 13 -347 123 -423 149 -30 10 -127 44 -215 75 -88 31 -187 66 -220
77 -33 11 -66 25 -72 31 -7 5 -13 7 -13 4 0 -3 -51 13 -112 35 -62 22 -131 46
-153 53 -32 11 -219 77 -285 101 -8 3 -15 5 -15 5 0 -1 -52 17 -115 40 -63 22
-135 47 -160 55 -25 8 -54 19 -65 24 -21 9 -233 83 -362 126 -40 13 -81 28
-90 33 -10 5 -56 21 -103 36 -47 15 -96 32 -110 38 -14 5 -29 11 -35 13 -19 4
-110 36 -140 48 -36 15 -124 46 -145 51 -8 2 -80 27 -160 55 -80 29 -161 57
-180 62 -19 6 -39 13 -45 18 -5 4 -22 10 -37 14 -15 3 -40 11 -55 18 -15 6
-34 12 -42 14 -7 1 -36 11 -65 22 -72 28 -90 35 -101 38 -14 3 -247 84 -265
91 -8 3 -18 5 -22 5 -5 -1 -8 2 -8 6 0 5 -6 9 -12 9 -23 0 -293 97 -300 107
-4 6 -8 8 -8 4 0 -7 -292 91 -300 101 -3 3 -9 6 -15 7 -31 2 -75 18 -75 26 0
5 -4 7 -8 4 -7 -4 -100 25 -162 51 -8 3 -19 7 -25 9 -19 4 -190 65 -210 74
-11 5 -67 25 -125 44 -148 49 -421 144 -445 155 -11 5 -29 12 -40 14 -11 3
-85 29 -165 57 -80 28 -163 57 -185 64 -22 8 -51 18 -65 24 -23 9 -58 22 -70
24 -3 1 -41 14 -85 30 -44 16 -102 36 -130 45 -27 8 -54 18 -60 23 -5 4 -22
10 -37 14 -15 3 -40 11 -55 18 -15 6 -30 12 -33 13 -3 1 -20 6 -37 10 -18 4
-33 12 -33 17 0 5 -4 7 -8 4 -5 -3 -47 9 -93 26 -104 38 -112 40 -124 44 -48
15 -111 39 -115 43 -3 3 -9 6 -15 6 -12 0 -110 32 -140 45 -11 5 -39 14 -62
21 -24 7 -43 17 -43 22 0 6 -3 8 -6 4 -5 -4 -205 61 -274 90 -8 3 -20 7 -26 8
-36 8 -170 60 -172 67 -2 4 -7 6 -11 3 -5 -2 -53 11 -107 31 -54 19 -133 46
-174 61 -41 14 -77 30 -78 34 -2 5 -7 7 -11 4 -7 -4 -61 12 -141 43 -14 5 -28
10 -32 11 -4 2 -58 20 -120 43 -62 22 -138 48 -168 58 -30 10 -93 32 -140 49
-278 98 -384 135 -455 159 -44 15 -82 29 -85 32 -3 3 -14 7 -25 8 -11 2 -22 8
-23 13 -2 5 -8 7 -12 4 -5 -3 -37 6 -71 20 -34 14 -68 25 -76 25 -7 0 -21 4
-31 10 -18 9 -202 75 -259 91 -18 6 -35 14 -38 20 -4 5 -10 7 -15 4 -4 -3 -25
3 -46 12 -22 9 -45 18 -52 19 -8 1 -21 6 -30 10 -9 4 -21 8 -27 10 -25 7 -362
125 -380 133 -11 5 -29 12 -40 14 -11 3 -47 15 -80 27 -33 12 -143 51 -245 86
-102 36 -192 67 -200 71 -8 3 -18 5 -22 5 -5 -1 -8 2 -8 6 0 4 -8 8 -17 9 -10
0 -81 23 -158 51 -77 27 -166 59 -197 70 l-58 20 0 -133z"/>
</g>
</svg>
